<svg xmlns="http://www.w3.org/2000/svg" xmlns:xlink="http://www.w3.org/1999/xlink" width="500" zoomAndPan="magnify" viewBox="0 0 375 374.999991" height="500" preserveAspectRatio="xMidYMid meet" version="1.0"><defs><g/><clipPath id="603adc8ac2"><path d="M 124.394531 80.273438 L 250.394531 80.273438 L 250.394531 130 L 124.394531 130 Z M 124.394531 80.273438 " clip-rule="nonzero"/></clipPath><clipPath id="79a7a6960c"><path d="M 124.394531 116 L 250.394531 116 L 250.394531 130 L 124.394531 130 Z M 124.394531 116 " clip-rule="nonzero"/></clipPath><clipPath id="21ce1045dd"><path d="M 153 195 L 243 195 L 243 209.273438 L 153 209.273438 Z M 153 195 " clip-rule="nonzero"/></clipPath><clipPath id="9006a11a5e"><path d="M 132 195 L 146 195 L 146 209.273438 L 132 209.273438 Z M 132 195 " clip-rule="nonzero"/></clipPath></defs><rect x="-37.5" width="450" fill="#ffffff" y="-37.499999" height="449.999989" fill-opacity="1"/><rect x="-37.5" width="450" fill="#5e17eb" y="-37.499999" height="449.999989" fill-opacity="1"/><g clip-path="url(#603adc8ac2)"><path fill="#660092" d="M 250.394531 116.609375 C 250.394531 123.824219 244.550781 129.664062 237.328125 129.664062 C 230.109375 129.664062 224.265625 123.824219 224.265625 116.609375 L 219.820312 80.273438 L 238.707031 80.273438 Z M 150.546875 116.609375 C 150.546875 123.824219 144.703125 129.664062 137.480469 129.664062 C 130.261719 129.664062 124.398438 123.824219 124.398438 116.609375 L 136.085938 80.273438 L 154.992188 80.273438 Z M 200.46875 116.609375 L 198.203125 80.273438 L 176.585938 80.273438 L 174.34375 116.609375 C 174.34375 123.824219 180.1875 129.664062 187.40625 129.664062 C 194.625 129.664062 200.46875 123.824219 200.46875 116.609375 Z M 200.46875 116.609375 " fill-opacity="1" fill-rule="evenodd"/></g><g clip-path="url(#79a7a6960c)"><path fill="#500076" d="M 250.394531 116.609375 C 250.394531 123.824219 244.550781 129.664062 237.328125 129.664062 C 230.109375 129.664062 224.265625 123.824219 224.265625 116.609375 Z M 124.398438 116.609375 L 150.546875 116.609375 C 150.546875 123.824219 144.703125 129.664062 137.480469 129.664062 C 130.261719 129.664062 124.398438 123.824219 124.398438 116.609375 Z M 174.34375 116.609375 L 200.46875 116.609375 C 200.46875 123.824219 194.625 129.664062 187.40625 129.664062 C 180.1875 129.664062 174.34375 123.824219 174.34375 116.609375 Z M 174.34375 116.609375 " fill-opacity="1" fill-rule="evenodd"/></g><g clip-path="url(#21ce1045dd)"><path fill="#ff781f" d="M 242.75 209.273438 L 153.804688 209.273438 L 153.804688 195.667969 C 183.46875 195.667969 213.109375 195.667969 242.75 195.667969 Z M 242.75 209.273438 " fill-opacity="1" fill-rule="nonzero"/></g><path fill="#ff781f" d="M 153.804688 141.21875 L 215.523438 141.21875 L 215.523438 154.828125 L 153.804688 154.828125 Z M 153.804688 141.21875 " fill-opacity="1" fill-rule="nonzero"/><path fill="#ff781f" d="M 153.804688 168.433594 L 215.523438 168.433594 L 215.523438 182.039062 L 153.804688 182.039062 Z M 153.804688 168.433594 " fill-opacity="1" fill-rule="nonzero"/><path fill="#ff781f" d="M 132.0625 141.21875 L 145.675781 141.21875 L 145.675781 154.828125 L 132.0625 154.828125 Z M 132.0625 141.21875 " fill-opacity="1" fill-rule="evenodd"/><g clip-path="url(#9006a11a5e)"><path fill="#ff781f" d="M 132.0625 195.667969 L 145.675781 195.667969 L 145.675781 209.273438 L 132.0625 209.273438 Z M 132.0625 195.667969 " fill-opacity="1" fill-rule="evenodd"/></g><path fill="#ff781f" d="M 132.0625 168.433594 L 145.675781 168.433594 L 145.675781 182.039062 L 132.0625 182.039062 Z M 132.0625 168.433594 " fill-opacity="1" fill-rule="evenodd"/><path fill="#ff781f" d="M 229.136719 168.433594 L 242.75 168.433594 L 242.75 182.039062 L 229.136719 182.039062 Z M 229.136719 168.433594 " fill-opacity="1" fill-rule="evenodd"/><path fill="#ff781f" d="M 229.136719 141.21875 L 242.75 141.21875 L 242.75 154.828125 L 229.136719 154.828125 Z M 229.136719 141.21875 " fill-opacity="1" fill-rule="evenodd"/><g fill="#ffffff" fill-opacity="1"><g transform="translate(75.061204, 267.67258)"><g><path d="M 3.90625 0 L 3.90625 -38.015625 L 11.71875 -38.015625 L 11.71875 0 Z M 3.90625 0 "/></g></g></g><g fill="#ffffff" fill-opacity="1"><g transform="translate(89.137571, 267.67258)"><g><path d="M 3.90625 0 L 3.90625 -26.96875 L 11.71875 -26.96875 L 11.71875 0 Z M 2.78125 -35.703125 C 2.78125 -37.140625 3.25 -38.3125 4.1875 -39.21875 C 5.125 -40.132812 6.332031 -40.59375 7.8125 -40.59375 C 9.3125 -40.59375 10.523438 -40.132812 11.453125 -39.21875 C 12.378906 -38.3125 12.84375 -37.140625 12.84375 -35.703125 C 12.84375 -34.265625 12.378906 -33.09375 11.453125 -32.1875 C 10.523438 -31.28125 9.3125 -30.828125 7.8125 -30.828125 C 6.332031 -30.828125 5.125 -31.28125 4.1875 -32.1875 C 3.25 -33.09375 2.78125 -34.265625 2.78125 -35.703125 Z M 2.78125 -35.703125 "/></g></g></g><g fill="#ffffff" fill-opacity="1"><g transform="translate(103.213937, 267.67258)"><g><path d="M 14.28125 0.71875 C 11.8125 0.71875 9.660156 0.328125 7.828125 -0.453125 C 6.003906 -1.242188 4.585938 -2.34375 3.578125 -3.75 C 2.566406 -5.15625 2.0625 -6.800781 2.0625 -8.6875 L 9.703125 -8.6875 C 9.742188 -7.582031 10.175781 -6.707031 11 -6.0625 C 11.820312 -5.414062 12.953125 -5.09375 14.390625 -5.09375 C 15.617188 -5.09375 16.578125 -5.320312 17.265625 -5.78125 C 17.953125 -6.238281 18.296875 -6.863281 18.296875 -7.65625 C 18.296875 -8.507812 17.832031 -9.21875 16.90625 -9.78125 C 15.976562 -10.351562 14.46875 -10.804688 12.375 -11.140625 C 8.957031 -11.765625 6.441406 -12.757812 4.828125 -14.125 C 3.222656 -15.5 2.421875 -17.296875 2.421875 -19.515625 C 2.421875 -22.160156 3.40625 -24.179688 5.375 -25.578125 C 7.34375 -26.984375 10.140625 -27.6875 13.765625 -27.6875 C 17.359375 -27.6875 20.175781 -26.914062 22.21875 -25.375 C 24.257812 -23.832031 25.363281 -21.640625 25.53125 -18.796875 L 18.078125 -18.796875 C 18.015625 -19.828125 17.597656 -20.625 16.828125 -21.1875 C 16.054688 -21.757812 15.019531 -22.046875 13.71875 -22.046875 C 12.550781 -22.046875 11.632812 -21.820312 10.96875 -21.375 C 10.300781 -20.925781 9.96875 -20.304688 9.96875 -19.515625 C 9.96875 -18.703125 10.40625 -18.0625 11.28125 -17.59375 C 12.15625 -17.132812 13.738281 -16.664062 16.03125 -16.1875 C 22.675781 -14.84375 26 -11.984375 26 -7.609375 C 26 -5.035156 24.960938 -3.003906 22.890625 -1.515625 C 20.816406 -0.0234375 17.945312 0.71875 14.28125 0.71875 Z M 14.28125 0.71875 "/></g></g></g><g fill="#ffffff" fill-opacity="1"><g transform="translate(129.774431, 267.67258)"><g><path d="M 16.90625 0 C 13.476562 0 10.847656 -0.878906 9.015625 -2.640625 C 7.179688 -4.410156 6.265625 -6.9375 6.265625 -10.21875 L 6.265625 -20.59375 L 1.03125 -20.59375 L 1.03125 -26.96875 L 3.4375 -26.96875 C 4.914062 -26.96875 5.921875 -27.207031 6.453125 -27.6875 C 6.984375 -28.164062 7.347656 -29.09375 7.546875 -30.46875 L 8.015625 -33.953125 L 14.078125 -33.953125 L 14.078125 -26.96875 L 21.46875 -26.96875 L 21.46875 -20.59375 L 14.078125 -20.59375 L 14.078125 -11.40625 C 14.078125 -8.320312 15.582031 -6.78125 18.59375 -6.78125 L 21.828125 -6.78125 L 21.828125 0 Z M 16.90625 0 "/></g></g></g><g fill="#ffffff" fill-opacity="1"><g transform="translate(152.224922, 267.67258)"><g/></g></g><g fill="#ffffff" fill-opacity="1"><g transform="translate(162.756404, 267.67258)"><g><path d="M 14.28125 0.71875 C 11.8125 0.71875 9.660156 0.328125 7.828125 -0.453125 C 6.003906 -1.242188 4.585938 -2.34375 3.578125 -3.75 C 2.566406 -5.15625 2.0625 -6.800781 2.0625 -8.6875 L 9.703125 -8.6875 C 9.742188 -7.582031 10.175781 -6.707031 11 -6.0625 C 11.820312 -5.414062 12.953125 -5.09375 14.390625 -5.09375 C 15.617188 -5.09375 16.578125 -5.320312 17.265625 -5.78125 C 17.953125 -6.238281 18.296875 -6.863281 18.296875 -7.65625 C 18.296875 -8.507812 17.832031 -9.21875 16.90625 -9.78125 C 15.976562 -10.351562 14.46875 -10.804688 12.375 -11.140625 C 8.957031 -11.765625 6.441406 -12.757812 4.828125 -14.125 C 3.222656 -15.5 2.421875 -17.296875 2.421875 -19.515625 C 2.421875 -22.160156 3.40625 -24.179688 5.375 -25.578125 C 7.34375 -26.984375 10.140625 -27.6875 13.765625 -27.6875 C 17.359375 -27.6875 20.175781 -26.914062 22.21875 -25.375 C 24.257812 -23.832031 25.363281 -21.640625 25.53125 -18.796875 L 18.078125 -18.796875 C 18.015625 -19.828125 17.597656 -20.625 16.828125 -21.1875 C 16.054688 -21.757812 15.019531 -22.046875 13.71875 -22.046875 C 12.550781 -22.046875 11.632812 -21.820312 10.96875 -21.375 C 10.300781 -20.925781 9.96875 -20.304688 9.96875 -19.515625 C 9.96875 -18.703125 10.40625 -18.0625 11.28125 -17.59375 C 12.15625 -17.132812 13.738281 -16.664062 16.03125 -16.1875 C 22.675781 -14.84375 26 -11.984375 26 -7.609375 C 26 -5.035156 24.960938 -3.003906 22.890625 -1.515625 C 20.816406 -0.0234375 17.945312 0.71875 14.28125 0.71875 Z M 14.28125 0.71875 "/></g></g></g><g fill="#ffffff" fill-opacity="1"><g transform="translate(189.316903, 267.67258)"><g><path d="M 16.90625 0 C 13.476562 0 10.847656 -0.878906 9.015625 -2.640625 C 7.179688 -4.410156 6.265625 -6.9375 6.265625 -10.21875 L 6.265625 -20.59375 L 1.03125 -20.59375 L 1.03125 -26.96875 L 3.4375 -26.96875 C 4.914062 -26.96875 5.921875 -27.207031 6.453125 -27.6875 C 6.984375 -28.164062 7.347656 -29.09375 7.546875 -30.46875 L 8.015625 -33.953125 L 14.078125 -33.953125 L 14.078125 -26.96875 L 21.46875 -26.96875 L 21.46875 -20.59375 L 14.078125 -20.59375 L 14.078125 -11.40625 C 14.078125 -8.320312 15.582031 -6.78125 18.59375 -6.78125 L 21.828125 -6.78125 L 21.828125 0 Z M 16.90625 0 "/></g></g></g><g fill="#ffffff" fill-opacity="1"><g transform="translate(211.767394, 267.67258)"><g><path d="M 17.15625 0.71875 C 14.175781 0.71875 11.546875 0.117188 9.265625 -1.078125 C 6.992188 -2.273438 5.210938 -3.941406 3.921875 -6.078125 C 2.640625 -8.222656 2 -10.703125 2 -13.515625 C 2 -16.316406 2.640625 -18.78125 3.921875 -20.90625 C 5.210938 -23.03125 6.992188 -24.691406 9.265625 -25.890625 C 11.546875 -27.085938 14.175781 -27.6875 17.15625 -27.6875 C 20.132812 -27.6875 22.765625 -27.085938 25.046875 -25.890625 C 27.328125 -24.691406 29.097656 -23.03125 30.359375 -20.90625 C 31.628906 -18.78125 32.265625 -16.316406 32.265625 -13.515625 C 32.265625 -10.703125 31.628906 -8.222656 30.359375 -6.078125 C 29.097656 -3.941406 27.328125 -2.273438 25.046875 -1.078125 C 22.765625 0.117188 20.132812 0.71875 17.15625 0.71875 Z M 9.703125 -13.515625 C 9.703125 -11.316406 10.394531 -9.515625 11.78125 -8.109375 C 13.175781 -6.710938 14.96875 -6.015625 17.15625 -6.015625 C 19.351562 -6.015625 21.132812 -6.710938 22.5 -8.109375 C 23.875 -9.515625 24.5625 -11.316406 24.5625 -13.515625 C 24.5625 -15.734375 23.875 -17.535156 22.5 -18.921875 C 21.132812 -20.316406 19.351562 -21.015625 17.15625 -21.015625 C 14.96875 -21.015625 13.175781 -20.316406 11.78125 -18.921875 C 10.394531 -17.535156 9.703125 -15.734375 9.703125 -13.515625 Z M 9.703125 -13.515625 "/></g></g></g><g fill="#ffffff" fill-opacity="1"><g transform="translate(244.492894, 267.67258)"><g><path d="M 3.90625 0 L 3.90625 -26.96875 L 9.703125 -26.96875 L 10.734375 -23.375 C 11.628906 -24.644531 12.726562 -25.5625 14.03125 -26.125 C 15.332031 -26.6875 16.972656 -26.96875 18.953125 -26.96875 L 21.890625 -26.96875 L 21.890625 -19.875 L 18.90625 -19.875 C 16.675781 -19.875 14.921875 -19.273438 13.640625 -18.078125 C 12.359375 -16.878906 11.71875 -14.828125 11.71875 -11.921875 L 11.71875 0 Z M 3.90625 0 "/></g></g></g><g fill="#ffffff" fill-opacity="1"><g transform="translate(266.583766, 267.67258)"><g><path d="M 16.640625 0.71875 C 13.765625 0.71875 11.222656 0.117188 9.015625 -1.078125 C 6.804688 -2.273438 5.082031 -3.941406 3.84375 -6.078125 C 2.613281 -8.222656 2 -10.703125 2 -13.515625 C 2 -16.316406 2.625 -18.78125 3.875 -20.90625 C 5.125 -23.03125 6.851562 -24.691406 9.0625 -25.890625 C 11.269531 -27.085938 13.832031 -27.6875 16.75 -27.6875 C 19.832031 -27.6875 22.492188 -27 24.734375 -25.625 C 26.984375 -24.257812 28.695312 -22.34375 29.875 -19.875 C 31.050781 -17.414062 31.554688 -14.539062 31.390625 -11.25 L 9.765625 -11.25 C 10.140625 -9.40625 10.957031 -7.992188 12.21875 -7.015625 C 13.488281 -6.035156 15.015625 -5.546875 16.796875 -5.546875 C 18.097656 -5.546875 19.285156 -5.789062 20.359375 -6.28125 C 21.441406 -6.78125 22.3125 -7.476562 22.96875 -8.375 L 30.875 -8.375 C 29.707031 -5.53125 27.875 -3.300781 25.375 -1.6875 C 22.875 -0.0820312 19.960938 0.71875 16.640625 0.71875 Z M 9.8125 -16.1875 L 23.84375 -16.1875 C 23.394531 -17.832031 22.5625 -19.125 21.34375 -20.0625 C 20.125 -21 18.609375 -21.46875 16.796875 -21.46875 C 15.085938 -21.46875 13.609375 -21 12.359375 -20.0625 C 11.109375 -19.125 10.257812 -17.832031 9.8125 -16.1875 Z M 9.8125 -16.1875 "/></g></g></g></svg>